PathFileType	4	(X/Y/Z)	TVC_32_BWA_07_walk_RCNL2025.trc
DataRate	CameraRate	NumFrames	NumMarkers	Units	OrigDataRate	OrigDataStartFrame	OrigNumFrames
100	100	9	27	mm	100	1	272
Frame#	Time	R_Shoulder			L_Shoulder			C7			J_Notch			R_Elbow			L_Elbow			R_Wrist			L_Wrist			R_Asis			L_Asis			R_Psis			L_Psis			Sacral			Thoracic			Sternum			R_Thigh_Lateral			R_Knee_Lateral			R_Shank_Lateral			R_Ankle_Lateral			R_Heel			R_Toe			L_Thigh_Lateral			L_Knee_Lateral			L_Shank_Lateral			L_Ankle_Lateral			L_Heel			L_Toe		
		X1	Y1	Z1	X2	Y2	Z2	X3	Y3	Z3	X4	Y4	Z4	X5	Y5	Z5	X6	Y6	Z6	X7	Y7	Z7	X8	Y8	Z8	X9	Y9	Z9	X10	Y10	Z10	X11	Y11	Z11	X12	Y12	Z12	X13	Y13	Z13	X14	Y14	Z14	X15	Y15	Z15	X16	Y16	Z16	X17	Y17	Z17	X18	Y18	Z18	X19	Y19	Z19	X20	Y20	Z20	X21	Y21	Z21	X22	Y22	Z22	X23	Y23	Z23	X24	Y24	Z24	X25	Y25	Z25	X26	Y26	Z26	X27	Y27	Z27
1	0.00000000	-921.390259	1468.658936	-316.650360	-957.642761	1441.005371	-691.443970	-987.102478	1514.283203	-502.902252	-828.663208	1414.110962	-501.828186	-873.370911	1140.754028	-163.818726	-1019.725647	1107.156860	-775.322021	-749.598328	895.535278	-201.290955	-930.555267	852.431122	-730.687958	-907.784424	1008.868713	-330.092041	-897.042664	1011.685486	-607.371094	-1096.237915	1025.626343	-422.836945	-1089.077148	1025.208130	-525.805420	-1092.657532	1025.417236	-474.321182	-1067.682007	1252.703491	-479.595367	-805.769409	1268.995972	-495.235474	-954.613159	631.099854	-226.176849	-905.108093	495.343170	-261.863892	-1082.305908	380.015503	-234.500595	-1229.382812	237.352997	-329.522308	-1266.970215	265.300232	-402.752899	-1198.622070	86.971825	-326.511383	-953.002625	666.639526	-674.353088	-924.826172	503.386505	-608.134155	-934.760498	343.204071	-671.565613	-873.346313	73.135803	-606.609009	-941.161499	56.409149	-559.856567	-730.343201	40.707222	-576.799011
2	0.01000000	-912.398621	1468.669922	-317.563599	-947.087952	1440.650146	-692.897644	-977.918274	1514.780518	-504.336365	-820.258789	1413.591919	-502.563202	-871.042419	1139.437012	-165.281311	-1000.084412	1106.169067	-779.282471	-751.726318	892.093079	-202.067871	-907.999146	851.732269	-736.101471	-900.871887	1008.425476	-331.157562	-891.604065	1011.918884	-609.275269	-1089.442627	1026.189575	-422.686493	-1082.996826	1025.997314	-525.501892	-1086.219727	1026.093445	-474.094193	-1060.175659	1253.875000	-480.409332	-798.207458	1268.429321	-496.206848	-938.837341	631.780212	-226.502029	-885.312561	498.548340	-262.350830	-1064.280884	385.800079	-236.472260	-1209.530518	241.088684	-330.957764	-1248.520630	268.804688	-403.915222	-1175.776367	91.356247	-327.316223	-948.091003	667.360229	-675.102844	-921.229797	503.829803	-608.681030	-931.279907	343.759064	-671.955139	-873.144104	73.108360	-606.495300	-941.089844	56.670650	-560.008728	-730.250793	40.629578	-576.798706
3	0.02000000	-903.559448	1468.728760	-318.395630	-936.721069	1440.370239	-694.209656	-968.826599	1515.260620	-505.662598	-811.903564	1413.116089	-503.202332	-868.781982	1138.276367	-166.685059	-980.715454	1105.491699	-783.017395	-753.866486	888.893707	-202.871437	-885.522095	851.538757	-741.300079	-893.903748	1008.131470	-332.156708	-886.065369	1012.254211	-611.108582	-1082.580688	1026.743286	-422.540955	-1076.817627	1026.744751	-525.213013	-1079.699158	1026.744019	-473.876984	-1052.661133	1254.975464	-481.154022	-790.644470	1267.905884	-497.077545	-923.264893	632.863403	-226.878540	-865.946838	501.851990	-262.992188	-1045.712402	390.383881	-238.262024	-1189.068237	243.515411	-332.306946	-1229.562256	270.868683	-404.912598	-1151.734741	94.767479	-328.564087	-943.144104	668.054016	-675.776794	-917.598267	504.252441	-609.191650	-927.980286	344.284424	-672.305542	-872.958374	73.088791	-606.393860	-941.025208	56.914646	-560.125977	-730.173828	40.565960	-576.798096
4	0.03000000	-894.872864	1468.835083	-319.146484	-926.541748	1440.165283	-695.380188	-959.827209	1515.723145	-506.881012	-803.597351	1412.683350	-503.745453	-866.589111	1137.271851	-168.029663	-961.620972	1105.124146	-786.527222	-756.018372	885.937042	-203.701675	-863.125092	851.851471	-746.283295	-886.879456	1007.985535	-333.089355	-880.425415	1012.689575	-612.869568	-1075.651855	1027.286987	-422.400848	-1070.539429	1027.450439	-524.939026	-1073.095642	1027.368713	-473.669937	-1045.138184	1256.004639	-481.829681	-783.080078	1267.425171	-497.847717	-907.898560	634.339355	-227.315750	-847.012817	505.251007	-263.785797	-1026.603149	393.763275	-239.871490	-1167.996216	244.640305	-333.572357	-1210.088379	271.490082	-405.752899	-1126.507568	97.219749	-330.234985	-938.174255	668.720276	-676.375000	-913.934021	504.654053	-609.666016	-924.862549	344.780579	-672.617249	-872.789062	73.077057	-606.304626	-940.967285	57.141190	-560.208557	-730.112427	40.516205	-576.797119
5	0.04000000	-886.339111	1468.987793	-319.816071	-916.548950	1440.034912	-696.409912	-950.919861	1516.167358	-507.991821	-795.339722	1412.293213	-504.192474	-864.462524	1136.422363	-169.314209	-942.807129	1105.064331	-789.813232	-758.180756	883.222717	-204.558701	-840.810883	852.672394	-751.049774	-879.798035	1007.983887	-333.955109	-874.680969	1013.219543	-614.554382	-1068.655029	1027.819214	-422.267303	-1064.161377	1028.114136	-524.680969	-1066.408203	1027.966675	-473.474136	-1037.605957	1256.962158	-482.437042	-775.513489	1266.987183	-498.517670	-892.751953	636.181458	-227.833939	-828.515259	508.736664	-264.725891	-1006.970276	395.942749	-241.305969	-1146.314575	244.480453	-334.759216	-1190.082275	270.666687	-406.453613	-1100.125122	98.745354	-332.280579	-933.210083	669.357788	-676.898071	-910.242615	505.033844	-610.104187	-921.926697	345.248535	-672.891235	-872.635986	73.073036	-606.227234	-940.915344	57.350647	-560.257568	-730.066284	40.479836	-576.796082
6	0.05000000	-877.958496	1469.184326	-320.404327	-906.740234	1439.978027	-697.300232	-942.103699	1516.591797	-508.995514	-787.129761	1411.944458	-504.543182	-862.399902	1135.725830	-170.536896	-924.285889	1105.307861	-792.878052	-760.351349	880.749725	-205.442612	-818.585022	854.004913	-755.597076	-872.656982	1008.118286	-334.753296	-868.826416	1013.833496	-616.155884	-1061.588745	1028.337158	-422.142120	-1057.682739	1028.735596	-524.440063	-1059.635742	1028.536377	-473.291092	-1030.062988	1257.846802	-482.977478	-767.942871	1266.590820	-499.088318	-877.854614	638.334656	-228.466492	-810.463745	512.291992	-265.802032	-986.860413	396.954987	-242.576996	-1124.020386	243.065094	-335.874268	-1169.516602	268.401886	-407.041718	-1072.644897	99.394524	-334.619537	-928.296631	669.965576	-677.347717	-906.532654	505.390594	-610.506714	-919.167969	345.690155	-673.128967	-872.498718	73.076462	-606.160583	-940.868103	57.543888	-560.275513	-730.035034	40.455929	-576.795044
7	0.06000000	-869.731018	1469.420898	-320.911072	-897.111328	1439.992432	-698.053467	-933.377136	1516.994385	-509.892761	-778.965454	1411.635498	-504.797485	-860.397827	1135.178711	-171.694702	-906.075928	1105.846558	-795.726440	-762.526428	878.516357	-206.353485	-796.457245	855.853516	-759.921570	-865.452271	1008.374390	-335.483276	-862.853699	1014.515137	-617.663513	-1054.450928	1028.835815	-422.027405	-1051.102051	1029.314087	-524.217712	-1052.776489	1029.074951	-473.122559	-1022.506653	1258.656982	-483.452942	-760.365601	1266.234985	-499.561005	-863.247559	640.705994	-229.260941	-792.873596	515.889771	-266.998383	-966.355957	396.875366	-243.702545	-1101.109131	240.436615	-336.923798	-1148.353149	264.711792	-407.549713	-1044.151245	99.230835	-337.142151	-923.485962	670.543457	-677.727722	-902.814575	505.722626	-610.874207	-916.573059	346.107666	-673.332275	-872.375916	73.086807	-606.103088	-940.823425	57.722149	-560.265259	-730.017944	40.443001	-576.794556
8	0.07000000	-861.655945	1469.691406	-321.336090	-887.655884	1440.074951	-698.672668	-924.737732	1517.371460	-510.684448	-770.843628	1411.363525	-504.955658	-858.451843	1134.775635	-172.783432	-888.203064	1106.668091	-798.365295	-764.700684	876.519562	-207.291214	-774.442139	858.222656	-764.018463	-858.177979	1008.730408	-336.144806	-856.752869	1015.242126	-619.064270	-1047.239136	1029.308960	-421.924927	-1044.417603	1029.848877	-524.014893	-1045.828369	1029.578918	-472.969910	-1014.933167	1259.390259	-483.865723	-752.777588	1265.917114	-499.937866	-848.969727	643.165039	-230.274094	-775.765991	519.491333	-268.294769	-945.567993	395.818542	-244.703644	-1077.576782	236.651962	-337.910583	-1126.546875	259.629822	-408.010162	-1014.747864	98.326050	-339.721436	-918.821716	671.092102	-678.043640	-899.098450	506.027618	-611.207825	-914.118774	346.503326	-673.503113	-872.265503	73.103241	-606.052246	-940.778564	57.886799	-560.229492	-730.013367	40.439064	-576.794800
9	0.08000000	-853.731079	1469.988037	-321.679077	-878.364746	1440.221069	-699.161987	-916.181702	1517.718872	-511.371643	-762.759705	1411.124756	-505.018219	-856.556885	1134.509888	-173.797775	-870.699219	1107.754761	-800.803894	-766.867340	874.755035	-208.255310	-752.559906	861.115387	-767.882141	-850.826538	1009.157043	-336.738220	-850.513550	1015.987610	-620.344177	-1039.950684	1029.748413	-421.835297	-1037.627686	1030.338745	-523.831482	-1038.789185	1030.043579	-472.833389	-1007.337891	1260.044067	-484.218109	-745.173462	1265.634033	-500.221680	-835.055298	645.568542	-231.547180	-759.167542	523.046692	-269.668365	-924.618164	393.918457	-245.598312	-1053.422852	231.782974	-338.831146	-1104.049316	253.208786	-408.450470	-984.544678	96.757645	-342.225342	-914.322266	671.611816	-678.302734	-895.392334	506.302826	-611.508667	-911.772888	346.878754	-673.643616	-872.164490	73.124390	-606.004944	-940.730469	58.039471	-560.170166	-730.019226	40.441650	-576.796082
